<svg xmlns="http://www.w3.org/2000/svg" xmlns:xlink="http://www.w3.org/1999/xlink" version="1.1" width="256" height="256" viewBox="0 0 256 256" xml:space="preserve">

<defs>
</defs>
<g style="stroke: none; stroke-width: 0; stroke-dasharray: none; stroke-linecap: butt; stroke-linejoin: miter; stroke-miterlimit: 10; fill: none; fill-rule: nonzero; opacity: 1;" transform="translate(1.4065934065934016 1.4065934065934016) scale(2.81 2.81)" >
	<path d="M 10.045 80.455 l 0 -70.829 C 10.045 4.31 14.354 0 19.671 0 l 53.582 0 c 3.702 0 6.703 3.001 6.703 6.703 l 0 66.453 C 79.2 77.047 39.975 78.376 10.045 80.455 z" style="stroke: none; stroke-width: 1; stroke-dasharray: none; stroke-linecap: butt; stroke-linejoin: miter; stroke-miterlimit: 10; fill: rgb(102,49,95); fill-rule: nonzero; opacity: 1;" transform=" matrix(1 0 0 1 0 0) " stroke-linecap="round" />
	<path d="M 19.59 0 l 0 78.123 l -9.545 2.332 l 0 -70.829 C 10.045 4.31 14.354 0 19.671 0" style="stroke: none; stroke-width: 1; stroke-dasharray: none; stroke-linecap: butt; stroke-linejoin: miter; stroke-miterlimit: 10; fill: rgb(76,36,70); fill-rule: nonzero; opacity: 1;" transform=" matrix(1 0 0 1 0 0) " stroke-linecap="round" />
	<path d="M 75.249 75.403 h 2.459 c 1.241 0 2.247 -1.006 2.247 -2.247 v 0 c 0 -1.241 -1.006 -2.247 -2.247 -2.247 l -58.119 0 c -5.272 0 -9.545 4.273 -9.545 9.545 v 0 c 0 5.272 4.273 9.545 9.545 9.545 l 58.119 0 c 1.241 0 2.247 -1.006 2.247 -2.247 l 0 0 c 0 -1.241 -1.006 -2.247 -2.247 -2.247 l -2.459 0 V 75.403 z" style="stroke: none; stroke-width: 1; stroke-dasharray: none; stroke-linecap: butt; stroke-linejoin: miter; stroke-miterlimit: 10; fill: rgb(76,36,70); fill-rule: nonzero; opacity: 1;" transform=" matrix(1 0 0 1 0 0) " stroke-linecap="round" />
	<path d="M 20.185 85.507 l 57.109 0 V 75.403 l -57.109 0 c -2.79 0 -5.052 2.262 -5.052 5.052 v 0 C 15.133 83.245 17.395 85.507 20.185 85.507 z" style="stroke: none; stroke-width: 1; stroke-dasharray: none; stroke-linecap: butt; stroke-linejoin: miter; stroke-miterlimit: 10; fill: rgb(242,190,235); fill-rule: nonzero; opacity: 1;" transform=" matrix(1 0 0 1 0 0) " stroke-linecap="round" />
	<path d="M 62.494 25.794 c 0 -4.076 -3.05 -7.437 -6.991 -7.933 c -1.216 -2.867 -4.056 -4.878 -7.366 -4.878 s -6.151 2.011 -7.366 4.878 c -3.942 0.495 -6.991 3.857 -6.991 7.933 c 0 3.047 1.705 5.696 4.212 7.046 v 7.799 c 0 1.814 1.47 3.284 3.284 3.284 h 13.723 c 1.814 0 3.284 -1.47 3.284 -3.284 V 32.84 C 60.789 31.49 62.494 28.842 62.494 25.794 z" style="stroke: none; stroke-width: 1; stroke-dasharray: none; stroke-linecap: butt; stroke-linejoin: miter; stroke-miterlimit: 10; fill: rgb(242,190,235); fill-rule: nonzero; opacity: 1;" transform=" matrix(1 0 0 1 0 0) " stroke-linecap="round" />
	<path d="M 62.766 51.923 H 34.05 c -0.552 0 -1 -0.447 -1 -1 s 0.448 -1 1 -1 h 28.716 c 0.553 0 1 0.447 1 1 S 63.318 51.923 62.766 51.923 z" style="stroke: none; stroke-width: 1; stroke-dasharray: none; stroke-linecap: butt; stroke-linejoin: miter; stroke-miterlimit: 10; fill: rgb(242,190,235); fill-rule: nonzero; opacity: 1;" transform=" matrix(1 0 0 1 0 0) " stroke-linecap="round" />
	<path d="M 62.766 58.923 H 34.05 c -0.552 0 -1 -0.447 -1 -1 s 0.448 -1 1 -1 h 28.716 c 0.553 0 1 0.447 1 1 S 63.318 58.923 62.766 58.923 z" style="stroke: none; stroke-width: 1; stroke-dasharray: none; stroke-linecap: butt; stroke-linejoin: miter; stroke-miterlimit: 10; fill: rgb(242,190,235); fill-rule: nonzero; opacity: 1;" transform=" matrix(1 0 0 1 0 0) " stroke-linecap="round" />
</g>
</svg>